<svg version="1.1" preserveAspectRatio="none" xmlns="http://www.w3.org/2000/svg" width="500" height="500" viewBox="0 0 500 500"><rect width="100%" height="100%" fill="#0F2D49" fill-opacity="1"/><svg viewBox="145.3899 172.194 274.665 120" width="417" height="182.18557151439023" x="41.5px" y="158.9072px" xmlns="http://www.w3.org/2000/svg" xmlns:xlink="http://www.w3.org/1999/xlink" preserveAspectRatio="none"><defs></defs><style>.companyName {fill:#CCBF90;fill-opacity:1;}.icon3-str {stroke:#EB63DD;stroke-opacity:1;}.shapeStroke-str {stroke:#CCBF90;stroke-opacity:1;}</style><g opacity="1" transform="rotate(0 166.3899 172.194)">
<svg width="253.665" height="120" x="166.3899" y="172.194" version="1.1" preserveAspectRatio="none" viewBox="-0.6 -28.4 150 70.96000000000001">
  <g transform="matrix(1 0 0 1 0 0)" class="companyName"><path id="id-D6z1nYkh11" d="M24.44-3.36Q24.96-2.04 25.64-1.44Q26.32-0.84 26.96-0.80L26.96-0.80L26.96 0Q24.56-0.12 20.88-0.12L20.88-0.12Q16.80-0.12 14.80 0L14.80 0L14.80-0.80Q16.32-0.88 16.96-1.18Q17.60-1.48 17.60-2.24L17.60-2.24Q17.60-2.96 17.12-4.16L17.12-4.16L14.72-10.72L6-10.72L4.96-7.96Q3.84-5.08 3.84-3.52L3.84-3.52Q3.84-2.04 4.74-1.46Q5.64-0.88 7.40-0.80L7.40-0.80L7.40 0Q4.68-0.12 2.44-0.12L2.44-0.12Q0.60-0.12-0.60 0L-0.60 0L-0.60-0.80Q1.36-1.16 2.84-5L2.84-5L11.96-28.40Q12.40-28.36 13.36-28.36L13.36-28.36Q14.32-28.36 14.72-28.40L14.72-28.40L24.44-3.36ZM6.32-11.52L14.44-11.52L10.48-22.32L6.32-11.52Z M53.60-28.32L53.60-27.52Q52.28-27.32 51.66-26.84Q51.04-26.36 50.82-25.32Q50.60-24.28 50.60-22.24L50.60-22.24L50.60 0.08L49.64 0.04L48.56 0.08L31.20-21.92L31.20-6.56Q31.20-4.20 31.44-3.10Q31.68-2 32.48-1.50Q33.28-1 35.08-0.80L35.08-0.80L35.08 0Q33.52-0.12 30.76-0.12L30.76-0.12Q28.56-0.12 27.28 0L27.28 0L27.28-0.80Q28.60-1 29.22-1.48Q29.84-1.96 30.06-3Q30.28-4.04 30.28-6.08L30.28-6.08L30.28-24.08Q30.28-25.60 30.06-26.28Q29.84-26.96 29.22-27.20Q28.60-27.44 27.28-27.52L27.28-27.52L27.28-28.32Q28.56-28.20 30.76-28.20L30.76-28.20Q32.76-28.20 34.20-28.32L34.20-28.32L49.68-9.24L49.68-21.76Q49.68-24.12 49.44-25.22Q49.20-26.32 48.40-26.82Q47.60-27.32 45.80-27.52L45.80-27.52L45.80-28.32Q47.36-28.20 50.12-28.20L50.12-28.20Q52.36-28.20 53.60-28.32L53.60-28.32Z M68.48-28.32L68.48-27.52Q67.12-27.44 66.52-27.20Q65.92-26.96 65.70-26.28Q65.48-25.60 65.48-24.08L65.48-24.08L65.48-4.24Q65.48-2.72 65.70-2.04Q65.92-1.36 66.52-1.12Q67.12-0.88 68.48-0.80L68.48-0.80L68.48 0Q66.32-0.12 62.44-0.12L62.44-0.12Q58.16-0.12 56.12 0L56.12 0L56.12-0.80Q57.44-0.88 58.06-1.12Q58.68-1.36 58.90-2.04Q59.12-2.72 59.12-4.24L59.12-4.24L59.12-24.08Q59.12-25.60 58.90-26.28Q58.68-26.96 58.06-27.20Q57.44-27.44 56.12-27.52L56.12-27.52L56.12-28.32Q58.16-28.20 62.44-28.20L62.44-28.20Q66.32-28.20 68.48-28.32L68.48-28.32Z M95.88-3.24Q96.48-2.32 97.12-1.76Q97.76-1.20 98.76-0.80L98.76-0.80L98.76 0Q95.96-0.12 92.52-0.12L92.52-0.12Q89.88-0.12 87.44 0L87.44 0L87.44-0.80Q88.56-0.88 89.06-1.04Q89.56-1.20 89.56-1.60L89.56-1.60Q89.56-1.92 89.12-2.60L89.12-2.60L83.32-12Q82.52-13.28 81.98-13.72Q81.44-14.16 80.52-14.24L80.52-14.24L80.52-4.24Q80.52-2.72 80.74-2.04Q80.96-1.36 81.56-1.12Q82.16-0.88 83.52-0.80L83.52-0.80L83.52 0Q81.36-0.12 77.48-0.12L77.48-0.12Q73.20-0.12 71.16 0L71.16 0L71.16-0.80Q72.48-0.88 73.10-1.12Q73.72-1.36 73.94-2.04Q74.16-2.72 74.16-4.24L74.16-4.24L74.16-24.08Q74.16-25.60 73.94-26.28Q73.72-26.96 73.10-27.20Q72.48-27.44 71.16-27.52L71.16-27.52L71.16-28.32Q73.20-28.20 77.48-28.20L77.48-28.20Q81.36-28.20 83.52-28.32L83.52-28.32L83.52-27.52Q82.16-27.44 81.56-27.20Q80.96-26.96 80.74-26.28Q80.52-25.60 80.52-24.08L80.52-24.08L80.52-15.08Q82.12-15.16 83.44-16.04Q84.76-16.92 86.44-18.84L86.44-18.84L88.80-21.68Q90.64-23.80 90.64-25.40L90.64-25.40Q90.64-26.36 89.86-26.92Q89.08-27.48 87.68-27.56L87.68-27.56L87.68-28.32Q90.60-28.20 93.60-28.20L93.60-28.20Q95.92-28.20 97.36-28.32L97.36-28.32L97.36-27.56Q94.16-26.80 91.56-23.72L91.56-23.72L86.56-17.76L95.88-3.24Z M121.64-6.08Q121.64-2.40 121.92 0L121.92 0Q119.20-0.12 112.76-0.12L112.76-0.12Q104.04-0.12 99.72 0L99.72 0L99.72-0.80Q101.04-0.88 101.66-1.12Q102.28-1.36 102.50-2.04Q102.72-2.72 102.72-4.24L102.72-4.24L102.72-24.08Q102.72-25.60 102.50-26.28Q102.28-26.96 101.66-27.20Q101.04-27.44 99.72-27.52L99.72-27.52L99.72-28.32Q104.04-28.20 112.76-28.20L112.76-28.20Q118.64-28.20 121.12-28.32L121.12-28.32Q120.84-25 120.84-22.40L120.84-22.40Q120.84-20.64 120.96-19.68L120.96-19.68L120.04-19.68Q119.44-23.96 117.88-25.68Q116.32-27.40 113.48-27.40L113.48-27.40L111.84-27.40Q110.60-27.40 110.04-27.20Q109.48-27 109.28-26.42Q109.08-25.84 109.08-24.56L109.08-24.56L109.08-14.64L110.36-14.64Q112.48-14.64 113.58-16.20Q114.68-17.76 115.12-19.92L115.12-19.92L116.04-19.92Q115.92-18.24 115.92-16.16L115.92-16.16L115.92-14.24Q115.92-12.20 116.16-8.56L116.16-8.56L115.24-8.56Q114.40-13.84 110.36-13.84L110.36-13.84L109.08-13.84L109.08-3.76Q109.08-2.48 109.28-1.90Q109.48-1.32 110.04-1.12Q110.60-0.92 111.84-0.92L111.84-0.92L113.80-0.92Q116.64-0.92 118.38-2.86Q120.12-4.80 120.84-9.44L120.84-9.44L121.76-9.44Q121.64-8.12 121.64-6.08L121.64-6.08Z M149.40-28.32Q149.12-24.52 149.12-21.52L149.12-21.52Q149.12-19.64 149.24-18.48L149.24-18.48L148.32-18.48Q147.36-23.40 145.70-25.40Q144.04-27.40 141.16-27.40L141.16-27.40L140.24-27.40L140.24-4.56Q140.24-2.88 140.58-2.12Q140.92-1.36 141.78-1.10Q142.64-0.84 144.52-0.80L144.52-0.80L144.52 0Q139.48-0.12 136.92-0.12L136.92-0.12Q134.40-0.12 129.60 0L129.60 0L129.60-0.80Q131.48-0.84 132.34-1.10Q133.20-1.36 133.54-2.12Q133.88-2.88 133.88-4.56L133.88-4.56L133.88-27.40L133-27.40Q131.08-27.40 129.74-26.56Q128.40-25.72 127.44-23.78Q126.48-21.84 125.80-18.48L125.80-18.48L124.88-18.48Q125-19.64 125-21.52L125-21.52Q125-24.52 124.72-28.32L124.72-28.32Q128.36-28.20 137.08-28.20L137.08-28.20Q145.80-28.20 149.40-28.32L149.40-28.32Z M8.56 13.16Q10.64 13.16 11.88 13.56Q13.12 13.96 14.40 14.72L14.40 14.72Q14.84 14.96 15.18 15.12Q15.52 15.28 15.76 15.28L15.76 15.28Q16.12 15.28 16.32 14.86Q16.52 14.44 16.64 13.52L16.64 13.52L17.56 13.52Q17.36 16.20 17.36 22.64L17.36 22.64L16.44 22.64Q16.28 20.48 15.46 18.52Q14.64 16.56 13.14 15.34Q11.64 14.12 9.64 14.12L9.64 14.12Q7.68 14.12 6.46 15.22Q5.24 16.32 5.24 18.20L5.24 18.20Q5.24 19.60 5.84 20.64Q6.44 21.68 7.52 22.54Q8.60 23.40 10.84 24.88L10.84 24.88L12.12 25.76Q14.48 27.32 15.84 28.48Q17.20 29.64 18.06 31.18Q18.92 32.72 18.92 34.76L18.92 34.76Q18.92 37.32 17.60 39.06Q16.28 40.80 14.02 41.68Q11.76 42.56 9 42.56L9 42.56Q6.76 42.56 5.28 42.16Q3.80 41.76 2.56 41.08L2.56 41.08Q1.68 40.52 1.20 40.52L1.20 40.52Q0.84 40.52 0.64 40.94Q0.44 41.36 0.32 42.28L0.32 42.28L-0.60 42.28Q-0.44 39.76-0.44 31.48L-0.44 31.48L0.48 31.48Q0.76 35.96 2.48 38.74Q4.20 41.52 7.76 41.52L7.76 41.52Q9.92 41.52 11.32 40.36Q12.72 39.20 12.72 37.04L12.72 37.04Q12.72 34.80 11.28 33.20Q9.84 31.60 6.72 29.60L6.72 29.60Q4.32 28.04 2.88 26.88Q1.44 25.72 0.52 24.14Q-0.40 22.56-0.40 20.48L-0.40 20.48Q-0.40 18.08 0.82 16.42Q2.04 14.76 4.08 13.96Q6.12 13.16 8.56 13.16L8.56 13.16Z M34.28 13.68L34.28 14.48Q32.92 14.56 32.32 14.80Q31.72 15.04 31.50 15.72Q31.28 16.40 31.28 17.92L31.28 17.92L31.28 37.76Q31.28 39.28 31.50 39.96Q31.72 40.64 32.32 40.88Q32.92 41.12 34.28 41.20L34.28 41.20L34.28 42Q32.12 41.88 28.24 41.88L28.24 41.88Q23.96 41.88 21.92 42L21.92 42L21.92 41.20Q23.24 41.12 23.86 40.88Q24.48 40.64 24.70 39.96Q24.92 39.28 24.92 37.76L24.92 37.76L24.92 17.92Q24.92 16.40 24.70 15.72Q24.48 15.04 23.86 14.80Q23.24 14.56 21.92 14.48L21.92 14.48L21.92 13.68Q23.96 13.80 28.24 13.80L28.24 13.80Q32.12 13.80 34.28 13.68L34.28 13.68Z M63.32 13.68L63.32 14.48Q62 14.68 61.38 15.16Q60.76 15.64 60.54 16.68Q60.32 17.72 60.32 19.76L60.32 19.76L60.32 42.08L59.36 42.04L58.28 42.08L40.92 20.08L40.92 35.44Q40.92 37.80 41.16 38.90Q41.40 40 42.20 40.50Q43 41 44.80 41.20L44.80 41.20L44.80 42Q43.24 41.88 40.48 41.88L40.48 41.88Q38.28 41.88 37 42L37 42L37 41.20Q38.32 41 38.94 40.52Q39.56 40.04 39.78 39Q40 37.96 40 35.92L40 35.92L40 17.92Q40 16.40 39.78 15.72Q39.56 15.04 38.94 14.80Q38.32 14.56 37 14.48L37 14.48L37 13.68Q38.28 13.80 40.48 13.80L40.48 13.80Q42.48 13.80 43.92 13.68L43.92 13.68L59.40 32.76L59.40 20.24Q59.40 17.88 59.16 16.78Q58.92 15.68 58.12 15.18Q57.32 14.68 55.52 14.48L55.52 14.48L55.52 13.68Q57.08 13.80 59.84 13.80L59.84 13.80Q62.08 13.80 63.32 13.68L63.32 13.68Z M80.40 13.12Q82.88 13.12 84.58 13.80Q86.28 14.48 87.92 15.72L87.92 15.72Q88.40 16.08 88.72 16.08L88.72 16.08Q89.12 16.08 89.36 15.50Q89.60 14.92 89.72 13.68L89.72 13.68L90.64 13.68Q90.48 16.40 90.48 23.36L90.48 23.36L89.56 23.36Q89.24 20.64 88.62 18.96Q88 17.28 86.56 16.12L86.56 16.12Q85.60 15.20 84.20 14.68Q82.80 14.16 81.32 14.16L81.32 14.16Q78.52 14.16 76.66 16.06Q74.80 17.96 73.92 21.08Q73.04 24.20 73.04 27.92L73.04 27.92Q73.04 41.76 80.72 41.76L80.72 41.76Q82.48 41.76 83.56 40.96L83.56 40.96Q84.08 40.60 84.30 40.12Q84.52 39.64 84.52 38.88L84.52 38.88L84.52 34.96Q84.52 33.08 84.20 32.22Q83.88 31.36 83.06 31.04Q82.24 30.72 80.48 30.64L80.48 30.64L80.48 29.84Q82.96 29.96 87.32 29.96L87.32 29.96Q90.88 29.96 92.68 29.84L92.68 29.84L92.68 30.64Q91.88 30.72 91.52 30.96Q91.16 31.20 91.02 31.88Q90.88 32.56 90.88 34.08L90.88 34.08L90.88 42L90.08 42Q90.04 41.16 89.74 40.44Q89.44 39.72 88.92 39.72L88.92 39.72Q88.24 39.72 86.76 40.56L86.76 40.56Q83.28 42.56 80.20 42.56L80.20 42.56Q73.28 42.56 69.60 38.78Q65.92 35 65.92 28.16L65.92 28.16Q65.92 23.68 67.78 20.28Q69.64 16.88 72.92 15Q76.20 13.12 80.40 13.12L80.40 13.12Z M124.28 14.48Q122.92 14.56 122.32 14.80Q121.72 15.04 121.50 15.72Q121.28 16.40 121.28 17.92L121.28 17.92L121.28 37.76Q121.28 39.28 121.50 39.96Q121.72 40.64 122.32 40.88Q122.92 41.12 124.28 41.20L124.28 41.20L124.28 42Q122.32 41.88 118.20 41.88L118.20 41.88Q114.16 41.88 111.92 42L111.92 42L111.92 41.20Q113.24 41.12 113.86 40.88Q114.48 40.64 114.70 39.96Q114.92 39.28 114.92 37.76L114.92 37.76L114.92 28.16L104.32 28.16L104.32 37.76Q104.32 39.28 104.54 39.96Q104.76 40.64 105.36 40.88Q105.96 41.12 107.32 41.20L107.32 41.20L107.32 42Q105.16 41.88 101.28 41.88L101.28 41.88Q97.00 41.88 94.96 42L94.96 42L94.96 41.20Q96.28 41.12 96.90 40.88Q97.52 40.64 97.74 39.96Q97.96 39.28 97.96 37.76L97.96 37.76L97.96 17.92Q97.96 16.40 97.74 15.72Q97.52 15.04 96.90 14.80Q96.28 14.56 94.96 14.48L94.96 14.48L94.96 13.68Q97.00 13.80 101.28 13.80L101.28 13.80Q105.16 13.80 107.32 13.68L107.32 13.68L107.32 14.48Q105.96 14.56 105.36 14.80Q104.76 15.04 104.54 15.72Q104.32 16.40 104.32 17.92L104.32 17.92L104.32 27.36L114.92 27.36L114.92 17.92Q114.92 16.40 114.70 15.72Q114.48 15.04 113.86 14.80Q113.24 14.56 111.92 14.48L111.92 14.48L111.92 13.68Q114.16 13.80 118.20 13.80L118.20 13.80Q122.32 13.80 124.28 13.68L124.28 13.68L124.28 14.48Z"/></g>
</svg>
</g><g opacity="1" transform="rotate(0 145.3899 172.194)">
<svg width="3" height="120" x="145.3899" y="172.194" version="1.1" preserveAspectRatio="none" viewBox="0 0 3 120">
  <rect x="0" y="0" width="3" height="120" class="companyName shapeStroke-str" style="stroke-width:0;" rx="0px" ry="0px" />
</svg>
</g></svg></svg>